<svg width="150" height="26" viewBox="0 0 150 26" fill="none" xmlns="http://www.w3.org/2000/svg">
<path d="M42.6291 19.518H39.4414V18.2731C38.7659 19.1403 37.4612 19.7744 35.8557 19.7744C34.1578 19.7744 32.7605 19.1869 31.664 18.04C30.5953 16.8884 30.0586 15.3637 30.0586 13.4661C30.0586 11.5639 30.5953 10.0392 31.664 8.89228C32.7559 7.74066 34.1532 7.15785 35.8557 7.15785C37.3686 7.15785 38.5114 7.58214 39.2563 8.44935V1.28784H42.6337V19.518H42.6291ZM33.5054 13.4661C33.5054 15.6015 34.6713 16.8231 36.4156 16.8231C38.1135 16.8231 39.2563 15.6715 39.2563 13.7272V13.1864C39.2563 11.2841 38.1135 10.0905 36.4156 10.0905C34.6667 10.0859 33.5054 11.3307 33.5054 13.4661Z" fill="#4F61FF"/>
<path d="M57.231 14.5435H48.9633C49.0327 16.0681 49.9626 17.0053 51.4755 17.0053C52.6877 17.0053 53.4326 16.5577 53.687 15.6672L57.1107 15.8304C56.9025 16.982 56.2733 17.9424 55.2231 18.6698C54.2006 19.3971 52.9884 19.7701 51.568 19.7701C49.7035 19.7701 48.1906 19.206 47.0525 18.059C45.9097 16.9074 45.3545 15.3828 45.3545 13.4618C45.3545 11.5129 45.9143 9.98833 47.0525 8.86468C48.1952 7.71306 49.6619 7.15356 51.4755 7.15356C53.2197 7.15356 54.617 7.69441 55.6672 8.77143C56.7128 9.82514 57.2264 11.3031 57.2264 13.1821V14.5435H57.231ZM48.9633 12.2683H53.8073C53.7379 10.7436 52.9468 9.82981 51.457 9.82981C49.9904 9.82981 49.0604 10.7436 48.9633 12.2683Z" fill="#4F61FF"/>
<path d="M69.2463 8.42185C70.2919 9.26575 70.9442 10.4174 71.1571 11.8487L67.8259 12.1285C67.664 10.8836 66.7571 10.0863 65.4524 10.0863C63.847 10.0863 62.7274 11.3312 62.7274 13.4666C62.7274 15.5554 63.847 16.8236 65.4524 16.8236C66.7803 16.8236 67.664 16.0729 67.849 14.8514L71.1571 15.1544C70.9257 16.5858 70.2965 17.7094 69.2463 18.5347C68.2007 19.3553 66.9422 19.7796 65.4524 19.7796C63.6342 19.7796 62.1444 19.2154 61.0063 18.0918C59.8635 16.9401 59.2852 15.4155 59.2852 13.4713C59.2852 11.5224 59.8681 9.97444 61.0063 8.8508C62.149 7.72249 63.6388 7.16299 65.4524 7.16299C66.9422 7.15367 68.196 7.57795 69.2463 8.42185Z" fill="#4F61FF"/>
<path d="M77.1164 11.7037L81.0027 7.38631H85.1251L80.5863 12.5709L85.4489 19.518H81.3266L78.1851 15.1306L77.1164 16.3056V19.518H73.7158V1.28784H77.1164V11.7037Z" fill="#4F61FF"/>
<path d="M91.4356 10.3468L91.4125 14.8508C91.4125 16.0956 92.1805 16.6831 93.2308 16.6831C93.4852 16.6831 93.8368 16.6365 94.2764 16.5665V19.6111C93.624 19.7044 92.9948 19.751 92.3887 19.751C89.6636 19.751 87.9888 18.3895 88.0119 15.6667L88.0351 10.3422H85.8467V7.38619H88.0582L88.0813 3.37183H91.4819L91.4588 7.38619H94.2764V10.3422H91.4356V10.3468Z" fill="#4F61FF"/>
<path d="M107.014 18.0401C105.825 19.1917 104.289 19.7745 102.429 19.7745C100.569 19.7745 99.0283 19.1871 97.8208 18.0401C96.6317 16.8652 96.0303 15.3405 96.0303 13.4662C96.0303 11.564 96.6364 10.0393 97.8208 8.89239C99.0329 7.74076 100.569 7.15796 102.429 7.15796C104.289 7.15796 105.829 7.74543 107.014 8.89239C108.226 10.044 108.832 11.5686 108.832 13.4662C108.827 15.3405 108.221 16.8698 107.014 18.0401ZM102.424 10.086C101.541 10.086 100.819 10.389 100.282 10.9998C99.7454 11.5873 99.4679 12.4079 99.4679 13.4616C99.4679 14.5153 99.7454 15.3405 100.282 15.9233C100.819 16.5108 101.541 16.8139 102.424 16.8139C103.308 16.8139 104.03 16.5108 104.566 15.9233C105.103 15.3359 105.381 14.5153 105.381 13.4616C105.381 12.4079 105.103 11.5826 104.566 10.9998C104.034 10.3937 103.313 10.086 102.424 10.086Z" fill="#4F61FF"/>
<path d="M122.494 8.89265C123.591 10.0443 124.123 11.5689 124.123 13.4665C124.123 15.3688 123.586 16.8934 122.494 18.0404C121.425 19.192 120.028 19.7748 118.302 19.7748C116.836 19.7748 115.693 19.3505 114.925 18.4833V25.5003H111.524V7.39135H114.735V8.65487C115.48 7.64778 116.669 7.15356 118.298 7.15356C120.028 7.15356 121.425 7.74103 122.494 8.89265ZM114.93 13.1868V13.7509C114.93 15.6532 116.072 16.8468 117.77 16.8468C119.515 16.8468 120.68 15.6019 120.68 13.4665C120.68 11.3311 119.515 10.0862 117.77 10.0862C116.072 10.0862 114.93 11.2845 114.93 13.1868Z" fill="#4F61FF"/>
<path d="M137.494 19.5179H134.278V18.2963C133.672 19.2801 132.627 19.7743 131.16 19.7743C128.389 19.7743 126.714 17.9933 126.714 15.0093V7.39087H130.114V14.2866C130.114 15.8112 130.767 16.5852 132.048 16.5852C133.33 16.5852 134.098 15.6481 134.098 14.24V7.39087H137.499V19.5179H137.494Z" fill="#4F61FF"/>
<path d="M149.833 11.0747L146.456 11.2612C146.409 10.2774 145.896 9.78317 144.92 9.78317C144.013 9.78317 143.546 10.1329 143.546 10.8136C143.546 11.1912 143.707 11.4244 144.059 11.5875C144.457 11.7973 145.105 11.9419 145.9 12.1517C148.672 12.879 150 13.6996 150 15.7418C150 18.2502 148.158 19.7794 145.063 19.7794C141.991 19.7794 140.196 18.3714 139.941 15.8397L143.342 15.6532C143.388 16.6603 143.971 17.1545 145.086 17.1545C146.016 17.1545 146.599 16.7302 146.599 16.0542C146.599 15.3268 146.178 15.117 144.411 14.6694C143.175 14.3664 142.643 14.1985 141.801 13.8255C140.682 13.238 140.242 12.4874 140.15 10.9861C140.15 8.64088 141.968 7.16288 144.971 7.16288C147.922 7.15356 149.625 8.7248 149.833 11.0747Z" fill="#4F61FF"/>
<path d="M10.4649 23.6208L10.3446 16.7903C11.1681 16.7763 11.8668 16.6551 12.4081 16.436C12.9679 16.2122 13.4352 15.9045 13.8331 15.5035C14.231 15.1025 14.5363 14.6316 14.7584 14.0675C14.9944 13.4753 15.1054 12.8133 15.1054 12.044C15.1054 11.2933 14.9897 10.6173 14.7584 10.0391C14.5363 9.47962 14.231 9.00871 13.8285 8.60308C13.4306 8.20211 12.9633 7.89438 12.4035 7.67059C11.8159 7.4328 11.1589 7.3209 10.4001 7.3209H3.55273V0.499756H10.4001C12.0148 0.499756 13.5323 0.779502 14.9157 1.339C16.3268 1.90781 17.576 2.7284 18.6216 3.78678C19.6672 4.84049 20.4862 6.09468 21.046 7.5074C21.6012 8.89681 21.8788 10.4261 21.8788 12.0533C21.8788 13.6805 21.6012 15.2098 21.046 16.6038C20.4815 18.0259 19.6672 19.2847 18.617 20.3431C17.5668 21.4015 16.3222 22.2221 14.9111 22.7909C13.5925 23.3177 12.1351 23.5928 10.4649 23.6208Z" fill="#4F61FF"/>
<path d="M7.98554 19.4851C7.93465 17.3077 6.16728 15.5593 3.99277 15.5593C1.78587 15.5593 0 17.359 0 19.583C0 21.807 1.78587 23.6067 3.99277 23.6067H7.98554V19.4851Z" fill="#4F61FF"/>
</svg>
